<svg width="100" height="100" viewBox="0 0 100 100" fill="none" xmlns="http://www.w3.org/2000/svg">
<g clip-path="url(#clip0_51_250)">
<path opacity="0.24" d="M41.8286 99.9214C35.962 98.1195 30.3184 95.484 24.7642 92.6876C16.5349 88.5455 7.95501 83.5249 3.58442 74.6368C0.437012 68.2367 -0.0821789 60.6235 0.0102195 53.3019C0.0747517 48.5878 0.382746 43.7933 1.87579 39.3876C4.64774 31.2024 11.6832 25.0677 19.4065 24.0994C23.8651 23.5387 28.4323 24.5723 32.8322 23.5835C45.2796 20.7798 51.8252 3.3327 64.255 0.439184C67.4449 -0.308493 70.7537 0.0111387 73.9773 0.545728C80.9512 1.70463 110.75 24.3985 95.9095 66.4872C93.5423 73.1976 88.7493 78.4276 83.5985 82.6276C79.3584 86.0856 74.5655 88.7137 70.7214 92.7213C68.7634 94.7606 66.9844 97.2073 64.4926 98.2709C62.9585 98.9289 61.285 98.9999 59.6453 99.0635L46.2915 99.5887" fill="#68E1FD"/>
<path d="M31.9111 46.7205V60.4011H24.1247V70.6182H13.3948V60.4011H5.61426V46.7205H13.3948V37.1035H24.1247V46.7205H31.9111Z" fill="#1CDAD0"/>
<path d="M40.7419 86.5848L42.5459 100L51.0378 99.5197L51.3106 90.0055L52.61 99.6804L59.7819 99.3589L62.3822 84.2334L40.7419 86.5848Z" fill="#606161"/>
<path d="M40.7419 86.5848L42.5459 100L51.0378 99.5197L51.3106 90.0055L52.61 99.6804L59.7819 99.3589L62.3822 84.2334L40.7419 86.5848Z" fill="url(#paint0_linear_51_250)"/>
<path d="M44.6505 17.976C44.6292 18.2767 44.6586 18.5797 44.7368 18.8647C44.815 19.1497 44.9401 19.4101 45.1037 19.6284C45.1802 19.7385 45.277 19.8226 45.3853 19.8733C45.9471 20.0976 45.9603 18.6415 45.7931 18.2321C45.5951 17.7686 44.7165 17.0396 44.6505 17.976Z" fill="url(#paint1_linear_51_250)"/>
<path d="M54.6647 16.9575C54.6932 17.2574 54.6712 17.5616 54.6001 17.8498C54.529 18.1379 54.4105 18.4035 54.2525 18.6286C54.1796 18.7435 54.0853 18.8334 53.9783 18.8903C53.4224 19.137 53.3711 17.6828 53.5295 17.266C53.7099 16.7837 54.5693 16.0248 54.6647 16.9575Z" fill="url(#paint2_linear_51_250)"/>
<path d="M47.2216 26.5314C44.7386 28.1183 42.8789 30.8978 41.0911 33.6044C40.7303 34.1502 40.5689 34.8138 40.3812 35.4848C38.4027 42.5878 38.7576 47.1318 38.1813 52.8964C37.7046 57.618 36.6163 62.4293 37.5359 67.0499C37.5359 67.0499 37.9759 85.9979 38.7928 88.9849L63.34 87.7344C63.34 87.7344 61.077 57.1376 60.8731 53.3917C59.8597 35.2157 56.9279 31.2679 54.7352 28.8081C52.5426 26.3482 47.2216 26.5314 47.2216 26.5314Z" fill="#68E1FD"/>
<path d="M47.2216 26.5315C44.7386 28.1184 42.8789 30.8979 41.0911 33.6045C40.7303 34.1503 40.5689 34.8139 40.3812 35.4849C38.4027 42.5879 38.7576 47.1319 38.1813 52.8965C37.7046 57.6181 36.6163 62.4294 37.5359 67.05C37.5359 67.05 37.9759 85.998 38.7928 88.985L63.34 87.7345C63.34 87.7345 61.0257 58.648 60.9626 54.8928C60.6971 39.0383 57.4911 31.3821 54.7396 28.8082C52.3813 26.6063 47.2216 26.5315 47.2216 26.5315Z" fill="url(#paint3_linear_51_250)"/>
<path d="M50.1973 66.4968C50.2862 66.5136 50.3769 66.4926 50.4555 66.437C50.4995 66.3868 50.5341 66.3246 50.5567 66.255C50.5793 66.1854 50.5893 66.1103 50.586 66.0351C50.6461 64.779 49.9891 63.6799 49.6107 62.5191C49.291 61.5434 49.1619 60.4798 48.8539 59.4966C48.5459 58.5134 47.9974 57.5602 47.1966 57.2798C46.8597 57.1854 46.514 57.1527 46.1699 57.1826L43.3833 57.2648C43.3065 57.2441 43.227 57.2475 43.1514 57.2748C43.0759 57.3021 43.0068 57.3524 42.95 57.4215C42.8932 57.4905 42.8505 57.5762 42.8256 57.671C42.8006 57.7659 42.7942 57.8671 42.8069 57.9658C42.738 58.8835 42.2203 61.0425 42.6852 61.8537C42.8935 62.2275 43.4508 62.349 43.7617 62.536C44.2116 62.815 44.6484 63.127 45.07 63.4706C46.6011 64.6855 48.2819 66.4968 50.1973 66.4968Z" fill="url(#paint4_linear_51_250)"/>
<path d="M54.2717 57.7208C52.9517 58.5881 52.4589 60.6218 51.8356 62.3433C51.4745 63.3405 51.032 64.2865 50.5156 65.1658C50.3587 65.4331 50.1856 65.7377 50.2223 66.0667C50.2539 66.2336 50.3256 66.3837 50.4273 66.4963C50.5291 66.6088 50.6558 66.6782 50.7898 66.6948C51.0582 66.7205 51.3275 66.6655 51.576 66.534C52.8739 65.9698 54.0838 65.1188 55.1502 64.0199C55.8483 63.3003 56.5053 62.4573 57.3501 62.0685C57.6801 61.9171 58.0615 61.8124 58.2595 61.4423C58.3614 61.2135 58.4202 60.9575 58.431 60.6947C58.5029 59.9806 58.5777 59.2535 58.4692 58.5469C58.2873 57.3338 57.8708 56.9955 57.0231 57.0759C56.1211 57.16 55.093 57.1806 54.2717 57.7208Z" fill="url(#paint5_linear_51_250)"/>
<path d="M46.5776 28.5989C46.5776 28.5989 49.4699 31.984 51.0128 29.6363C52.5557 27.2886 52.3694 28.1671 52.3694 28.1671L51.5657 50.2236L46.5776 28.5989Z" fill="#606161"/>
<path d="M50.2371 5.746C49.7001 4.93569 48.9358 4.42517 48.1075 4.32355C47.3052 4.23196 46.4238 4.60579 45.9985 5.47684C45.689 6.10863 45.6582 6.89369 45.6567 7.6395C45.6567 8.33484 45.6758 9.05822 45.931 9.67318C46.2008 10.273 46.6315 10.7284 47.1439 10.9554C48.3172 11.5162 49.7061 11.0115 50.5993 9.92926C51.4925 8.847 50.9572 6.83387 50.2371 5.746Z" fill="#606161"/>
<path d="M50.2371 5.746C49.7001 4.93569 48.9358 4.42517 48.1075 4.32355C47.3052 4.23196 46.4238 4.60579 45.9985 5.47684C45.689 6.10863 45.6582 6.89369 45.6567 7.6395C45.6567 8.33484 45.6758 9.05822 45.931 9.67318C46.2008 10.273 46.6315 10.7284 47.1439 10.9554C48.3172 11.5162 49.7061 11.0115 50.5993 9.92926C51.4925 8.847 50.9572 6.83387 50.2371 5.746Z" fill="url(#paint6_linear_51_250)"/>
<path d="M47.6087 21.9838C47.6087 21.9838 47.6351 26.7409 46.7976 27.7596C45.9602 28.7783 50.2736 33.3672 52.0086 28.1128C52.0086 28.1128 50.9321 25.881 51.2445 22.0754C51.5569 18.2697 47.6087 21.9838 47.6087 21.9838Z" fill="url(#paint7_linear_51_250)"/>
<path d="M47.4915 23.1127L47.5047 24.1558C47.5047 24.1558 49.7163 28.0811 50.5846 26.7222C51.4529 25.3633 51.1859 25.0829 51.1859 25.0829L51.2505 22.0679L47.4915 23.1127Z" fill="url(#paint8_linear_51_250)"/>
<path d="M45.4602 15.2246C45.4602 15.2246 44.9293 22.4976 47.9931 23.8752C51.0569 25.2528 52.8477 23.15 53.6382 19.6265C54.4287 16.1031 53.0633 9.05811 49.8249 9.81327C46.5866 10.5684 45.4602 15.2246 45.4602 15.2246Z" fill="url(#paint9_linear_51_250)"/>
<path d="M45.0025 17.6732C44.8586 17.4258 44.7649 17.1369 44.7297 16.8321C44.5149 15.4737 44.5834 14.0672 44.9282 12.753C45.2731 11.4388 45.8822 10.2627 46.695 9.34225C47.025 8.95911 47.4093 8.65967 47.8273 8.45999C48.2474 8.30073 48.6863 8.23744 49.1238 8.27307C50.4892 8.32541 51.8591 8.8656 52.937 9.93665C54.015 11.0077 54.7703 12.6302 54.8583 14.3666C54.901 14.8824 54.8415 15.4036 54.6853 15.8826C54.6054 16.1201 54.4831 16.3306 54.328 16.4971C54.1729 16.6636 53.9894 16.7815 53.7921 16.8415C53.0896 17.0115 52.8857 16.1891 52.3108 15.647C51.444 14.8339 51.1551 13.6059 49.2103 13.8526C46.0365 14.2582 45.8737 18.9836 45.0025 17.6732Z" fill="#606161"/>
<path d="M44.3733 29.083C44.3733 29.083 33.8839 38.6869 33.6669 56.4088C33.5393 66.6781 42.6134 64.7416 42.9067 64.4855C43.2 64.2295 43.9729 55.448 43.9729 55.448C43.9729 55.448 40.7317 55.5134 40.3283 54.7713C39.925 54.0293 44.3733 29.083 44.3733 29.083Z" fill="#68E1FD"/>
<path d="M44.3733 29.083C44.3733 29.083 33.8839 38.6869 33.6669 56.4088C33.5393 66.6781 42.6134 64.7416 42.9067 64.4855C43.2 64.2295 43.9729 55.448 43.9729 55.448C43.9729 55.448 40.7317 55.5134 40.3283 54.7713C39.925 54.0293 44.3733 29.083 44.3733 29.083Z" fill="url(#paint10_linear_51_250)"/>
<path d="M55.5535 29.083C55.5535 29.083 66.0444 38.6869 66.2599 56.4088C66.3875 66.6781 57.3134 64.7416 57.0201 64.4855C56.7268 64.2295 55.9553 55.448 55.9553 55.448C55.9553 55.448 59.1966 55.5134 59.5985 54.7713C60.0003 54.0293 55.5535 29.083 55.5535 29.083Z" fill="#68E1FD"/>
<path d="M55.5535 29.083C55.5535 29.083 66.0444 38.6869 66.2599 56.4088C66.3875 66.6781 57.3134 64.7416 57.0201 64.4855C56.7268 64.2295 55.9553 55.448 55.9553 55.448C55.9553 55.448 59.1966 55.5134 59.5985 54.7713C60.0003 54.0293 55.5535 29.083 55.5535 29.083Z" fill="url(#paint11_linear_51_250)"/>
<path d="M56.9262 32.0754C56.891 32.0751 56.8567 32.061 56.8281 32.0349C56.7995 32.0088 56.7779 31.972 56.7664 31.9296C56.0902 29.3445 53.4503 27.8622 53.4239 27.8398C53.4036 27.8288 53.3853 27.8128 53.37 27.7927C53.3546 27.7726 53.3426 27.7488 53.3345 27.7227C53.3264 27.6966 53.3225 27.6687 53.323 27.6407C53.3235 27.6126 53.3284 27.585 53.3374 27.5594C53.3551 27.5076 53.3881 27.4668 53.4293 27.4458C53.4705 27.4248 53.5165 27.4253 53.5574 27.4472C53.6718 27.5108 56.3616 29.0267 57.0861 31.795C57.0996 31.849 57.096 31.9077 57.076 31.9584C57.0559 32.009 57.0211 32.0477 56.979 32.066C56.9619 32.0728 56.9441 32.0759 56.9262 32.0754Z" fill="#68E1FD"/>
<path d="M56.9262 32.0754C56.891 32.0751 56.8567 32.061 56.8281 32.0349C56.7995 32.0088 56.7779 31.972 56.7664 31.9296C56.0902 29.3445 53.4503 27.8622 53.4239 27.8398C53.4036 27.8288 53.3853 27.8128 53.37 27.7927C53.3546 27.7726 53.3426 27.7488 53.3345 27.7227C53.3264 27.6966 53.3225 27.6687 53.323 27.6407C53.3235 27.6126 53.3284 27.585 53.3374 27.5594C53.3551 27.5076 53.3881 27.4668 53.4293 27.4458C53.4705 27.4248 53.5165 27.4253 53.5574 27.4472C53.6718 27.5108 56.3616 29.0267 57.0861 31.795C57.0996 31.849 57.096 31.9077 57.076 31.9584C57.0559 32.009 57.0211 32.0477 56.979 32.066C56.9619 32.0728 56.9441 32.0759 56.9262 32.0754Z" fill="url(#paint12_linear_51_250)"/>
<path d="M46.5483 46.6683C42.1088 38.5635 45.4043 28.9353 45.4204 28.911C45.4444 28.8662 45.4554 28.8122 45.4514 28.7582C45.4473 28.7043 45.4286 28.6538 45.3984 28.6156C45.3856 28.5967 45.3698 28.5814 45.3519 28.571C45.3341 28.5606 45.3147 28.5552 45.295 28.5552C45.2754 28.5552 45.256 28.5606 45.2382 28.571C45.2203 28.5814 45.2044 28.5967 45.1916 28.6156C45.1242 28.7241 41.6717 38.5691 46.2579 46.6889C46.3107 46.7786 46.5893 46.7412 46.5483 46.6683Z" fill="#68E1FD"/>
<path d="M47.3081 26.7052C47.3081 26.7052 46.2095 27.9389 47.3609 30.9202C48.5122 33.9016 51.6713 50.7823 51.6713 50.7823L45.6214 38.5166L46.2183 33.8287L44.9585 32.6025C44.9585 32.6025 44.9028 28.18 45.5452 27.2472C46.1875 26.3145 46.8915 26.3669 47.3081 26.7052Z" fill="#68E1FD"/>
<path d="M51.4104 26.0586C51.4104 26.0586 53.185 26.5857 53.493 27.6437C53.801 28.7016 55.0638 31.8064 55.0638 31.8064L54.2953 33.1989L55.5463 34.9896L51.6671 50.7824C51.6671 50.7824 52.4473 29.4736 52.0044 28.1128C51.5615 26.7521 51.4104 26.0586 51.4104 26.0586Z" fill="#68E1FD"/>
<path d="M47.3081 26.7052C47.3081 26.7052 46.2095 27.9389 47.3609 30.9202C48.5122 33.9016 51.6713 50.7823 51.6713 50.7823L45.6214 38.5166L46.2183 33.8287L44.9585 32.6025C44.9585 32.6025 44.9028 28.18 45.5452 27.2472C46.1875 26.3145 46.8915 26.3669 47.3081 26.7052Z" fill="url(#paint13_linear_51_250)"/>
<path d="M51.7037 49.8084C51.8504 45.6177 52.4004 29.2959 52.0073 28.1108C51.5673 26.7444 51.4089 26.0547 51.4089 26.0547C51.4134 26.0616 51.4196 26.0662 51.4265 26.0678C51.6231 26.1238 53.2041 26.6472 53.4901 27.6379C53.804 28.6977 55.0726 31.795 55.0726 31.795L54.3041 33.1969L55.5463 34.9857L51.6671 50.7823C51.6671 50.7823 51.6759 50.4346 51.7037 49.8084Z" fill="url(#paint14_linear_51_250)"/>
<path d="M54.1046 17.4883C54.1419 17.4434 54.1718 17.3893 54.1926 17.3294C54.2041 17.2612 54.2105 17.1917 54.2116 17.122C54.217 17.0502 54.2431 16.9835 54.285 16.935C54.3044 16.9123 54.3282 16.8966 54.3541 16.8897C54.3799 16.8828 54.4067 16.8849 54.4316 16.8958C54.4539 16.9084 54.4737 16.927 54.4899 16.9502C54.5061 16.9734 54.5182 17.0007 54.5255 17.0304C54.5409 17.0907 54.5488 17.1538 54.5489 17.2173C54.5714 17.4557 54.5462 17.6975 54.4756 17.9201C54.4082 18.0735 54.3209 18.2112 54.2175 18.3276C54.1812 18.3855 54.1286 18.4231 54.0708 18.4323C54.0335 18.4286 53.9976 18.4125 53.9667 18.3855C53.9528 18.3776 53.9408 18.3654 53.9315 18.35C53.9249 18.3337 53.9209 18.3159 53.9198 18.2977C53.8956 18.1334 53.8956 17.9648 53.9198 17.8005C53.9553 17.6751 54.0197 17.5663 54.1046 17.4883Z" fill="url(#paint15_linear_51_250)"/>
<path d="M45.29 18.449C45.2511 18.4071 45.2201 18.3547 45.199 18.2957C45.1848 18.2279 45.1764 18.1584 45.1741 18.0882C45.1671 18.0159 45.1394 17.9494 45.0964 17.9013C45.0752 17.8792 45.0498 17.8645 45.0228 17.8586C44.9959 17.8527 44.9681 17.8558 44.9424 17.8677C44.9206 17.8815 44.9013 17.901 44.8856 17.9248C44.87 17.9486 44.8583 17.9762 44.8514 18.006C44.8389 18.067 44.833 18.1299 44.8338 18.1929C44.8164 18.4325 44.8472 18.6737 44.9233 18.8939C44.9953 19.0442 45.0865 19.1782 45.1932 19.2901C45.2303 19.3458 45.2828 19.3813 45.3398 19.3892C45.3769 19.384 45.4123 19.3666 45.4425 19.3387C45.4566 19.3305 45.4688 19.3176 45.4777 19.3013C45.484 19.2844 45.4875 19.2659 45.488 19.2471C45.5056 19.082 45.4996 18.9142 45.4704 18.7518C45.4344 18.6308 45.3717 18.5257 45.29 18.449Z" fill="url(#paint16_linear_51_250)"/>
<path d="M51.7037 49.8084C51.8504 45.6177 52.4004 29.2959 52.0073 28.1108C51.5673 26.7444 51.4089 26.0547 51.4089 26.0547C51.4134 26.0616 51.4196 26.0662 51.4265 26.0678C51.5512 26.2154 52.374 27.1725 52.5793 27.8435C52.7846 28.5145 53.0794 44.9784 51.7037 49.8084Z" fill="url(#paint17_linear_51_250)"/>
<path d="M42.3758 50.1225C42.3758 50.1225 43.6855 45.328 47.1482 45.9542C50.611 46.5804 51.2138 49.4758 51.2138 49.4758C51.2138 49.4758 52.1407 44.1037 56.8882 46.3411C61.6357 48.5785 57.9618 55.7992 57.4089 56.2796C56.8559 56.76 50.7166 64.3003 50.7166 64.3003C50.7166 64.3003 43.0138 55.7974 42.5767 54.9188C42.1397 54.0403 41.6938 52.3898 42.3758 50.1225Z" fill="#1CDAD0"/>
<path d="M43.6429 50.3449C43.6429 50.3449 44.784 45.5878 47.7407 46.1785C50.6975 46.7691 51.1961 49.6346 51.1961 49.6346C51.1961 49.6346 52.7743 44.3803 56.8882 46.3411C61.7105 48.6383 57.884 55.7992 57.4088 56.2796C56.9336 56.76 50.7004 64.3171 50.7004 64.3171C50.7004 64.3171 44.1607 55.9581 43.7911 55.0908C43.4215 54.2235 43.049 52.5954 43.6429 50.3449Z" fill="url(#paint18_linear_51_250)"/>
<path d="M43.156 50.0273C43.5491 48.5917 44.5009 47.2777 45.6919 47.1898C45.7699 47.1772 45.8492 47.1927 45.9206 47.2347C45.9658 47.2774 46.0035 47.3314 46.0315 47.3935C46.0595 47.4556 46.0772 47.5243 46.0834 47.5955C46.2492 48.5899 45.8429 49.5768 45.7036 50.5768C45.4337 52.5152 46.1685 54.4199 46.7786 56.2274C46.8798 56.5227 46.9693 56.8947 46.8065 57.1414C46.7464 57.2138 46.6757 57.2704 46.5984 57.3079C46.5212 57.3454 46.4389 57.3632 46.3562 57.3601C43.5652 57.6087 42.3919 52.8199 43.156 50.0273Z" fill="url(#paint19_linear_51_250)"/>
<path d="M50.5287 59.5002L48.9975 53.1431L48.0809 55.5918L43.238 55.7861L42.4519 54.7431L47.4957 54.5095L49.1779 50.0122L50.583 55.8404L51.7959 51.401L52.7037 53.8814L53.833 50.2552L54.9066 54.5768L58.3034 54.5824L57.8003 55.7058L54.2569 55.7394L53.7377 53.6478L52.7697 56.7544L51.9161 54.4254L50.5287 59.5002Z" fill="white"/>
<path d="M57.5201 44.5243C57.3862 44.5249 57.2539 44.4872 57.1329 44.414C56.8 44.2102 56.5844 43.7523 56.4891 43.0513C56.3116 41.7429 55.7103 32.6586 56.6035 31.6866C56.6688 31.6098 56.7491 31.5565 56.8359 31.5322C56.9228 31.5079 57.0131 31.5135 57.0977 31.5483C57.8457 31.8455 58.4984 34.7502 58.6802 35.6325L60.0501 42.5373C60.0721 43.0382 59.9386 43.8869 59.3314 43.9766L59.2728 43.3411C59.5661 43.2962 59.5544 42.6364 59.5544 42.6289L58.1918 35.7932C57.8076 33.9241 57.2107 32.1988 56.9408 32.1595C56.3864 32.7652 56.6885 40.7578 56.9833 42.9429C57.0479 43.4196 57.174 43.7298 57.35 43.8364C57.4947 43.8979 57.6525 43.8852 57.79 43.8009L58.032 44.3616C57.8733 44.4646 57.6982 44.5203 57.5201 44.5243Z" fill="#68E1FD"/>
<path d="M57.5201 44.5243C57.3862 44.5249 57.2539 44.4872 57.1329 44.414C56.8 44.2102 56.5844 43.7523 56.4891 43.0513C56.3116 41.7429 55.7103 32.6586 56.6035 31.6866C56.6688 31.6098 56.7491 31.5565 56.8359 31.5322C56.9228 31.5079 57.0131 31.5135 57.0977 31.5483C57.8457 31.8455 58.4984 34.7502 58.6802 35.6325L60.0501 42.5373C60.0721 43.0382 59.9386 43.8869 59.3314 43.9766L59.2728 43.3411C59.5661 43.2962 59.5544 42.6364 59.5544 42.6289L58.1918 35.7932C57.8076 33.9241 57.2107 32.1988 56.9408 32.1595C56.3864 32.7652 56.6885 40.7578 56.9833 42.9429C57.0479 43.4196 57.174 43.7298 57.35 43.8364C57.4947 43.8979 57.6525 43.8852 57.79 43.8009L58.032 44.3616C57.8733 44.4646 57.6982 44.5203 57.5201 44.5243Z" fill="url(#paint20_linear_51_250)"/>
</g>
<defs>
<linearGradient id="paint0_linear_51_250" x1="40.7419" y1="92.1177" x2="62.3822" y2="92.1177" gradientUnits="userSpaceOnUse">
<stop offset="0.12" stop-color="#010101" stop-opacity="0"/>
<stop offset="0.95" stop-color="#010101"/>
</linearGradient>
<linearGradient id="paint1_linear_51_250" x1="44.6466" y1="18.7178" x2="45.88" y2="18.7022" gradientUnits="userSpaceOnUse">
<stop stop-color="#E5C6D6"/>
<stop offset="0.42" stop-color="#EAD4D0"/>
<stop offset="1" stop-color="#F0E9CB"/>
</linearGradient>
<linearGradient id="paint2_linear_51_250" x1="54.7882" y1="17.0473" x2="53.5531" y2="17.0667" gradientUnits="userSpaceOnUse">
<stop stop-color="#E5C6D6"/>
<stop offset="0.42" stop-color="#EAD4D0"/>
<stop offset="1" stop-color="#F0E9CB"/>
</linearGradient>
<linearGradient id="paint3_linear_51_250" x1="51.3209" y1="102.292" x2="46.4238" y2="27.0537" gradientUnits="userSpaceOnUse">
<stop stop-color="white" stop-opacity="0"/>
<stop offset="0.95" stop-color="white"/>
</linearGradient>
<linearGradient id="paint4_linear_51_250" x1="41.6403" y1="62.6663" x2="48.181" y2="59.6646" gradientUnits="userSpaceOnUse">
<stop stop-color="#E5C6D6"/>
<stop offset="0.42" stop-color="#EAD4D0"/>
<stop offset="1" stop-color="#F0E9CB"/>
</linearGradient>
<linearGradient id="paint5_linear_51_250" x1="55.9986" y1="62.5144" x2="49.6485" y2="59.691" gradientUnits="userSpaceOnUse">
<stop stop-color="#E5C6D6"/>
<stop offset="0.42" stop-color="#EAD4D0"/>
<stop offset="1" stop-color="#F0E9CB"/>
</linearGradient>
<linearGradient id="paint6_linear_51_250" x1="47.6306" y1="5.94277" x2="49.5106" y2="9.67184" gradientUnits="userSpaceOnUse">
<stop stop-color="#010101" stop-opacity="0"/>
<stop offset="0.95" stop-color="#010101"/>
</linearGradient>
<linearGradient id="paint7_linear_51_250" x1="46.6598" y1="25.5376" x2="51.9777" y2="25.4706" gradientUnits="userSpaceOnUse">
<stop stop-color="#E5C6D6"/>
<stop offset="0.42" stop-color="#EAD4D0"/>
<stop offset="1" stop-color="#F0E9CB"/>
</linearGradient>
<linearGradient id="paint8_linear_51_250" x1="48.821" y1="27.903" x2="52.4171" y2="12.709" gradientUnits="userSpaceOnUse">
<stop offset="0.12" stop-color="#010101" stop-opacity="0"/>
<stop offset="0.95" stop-color="#010101"/>
</linearGradient>
<linearGradient id="paint9_linear_51_250" x1="45.4347" y1="17.1201" x2="53.8559" y2="17.014" gradientUnits="userSpaceOnUse">
<stop stop-color="#E5C6D6"/>
<stop offset="0.42" stop-color="#EAD4D0"/>
<stop offset="1" stop-color="#F0E9CB"/>
</linearGradient>
<linearGradient id="paint10_linear_51_250" x1="27.8741" y1="45.0894" x2="43.0876" y2="46.2911" gradientUnits="userSpaceOnUse">
<stop offset="0.52" stop-color="white" stop-opacity="0.52"/>
<stop offset="0.95" stop-color="white"/>
</linearGradient>
<linearGradient id="paint11_linear_51_250" x1="70.1299" y1="43.761" x2="56.3646" y2="44.4612" gradientUnits="userSpaceOnUse">
<stop offset="0.52" stop-color="white" stop-opacity="0.52"/>
<stop offset="0.95" stop-color="white"/>
</linearGradient>
<linearGradient id="paint12_linear_51_250" x1="55.6121" y1="29.408" x2="52.9152" y2="30.8253" gradientUnits="userSpaceOnUse">
<stop offset="0.12" stop-color="#010101" stop-opacity="0"/>
<stop offset="0.95" stop-color="#010101"/>
</linearGradient>
<linearGradient id="paint13_linear_51_250" x1="44.0851" y1="40.8652" x2="48.5733" y2="39.6274" gradientUnits="userSpaceOnUse">
<stop stop-color="white" stop-opacity="0"/>
<stop offset="0.95" stop-color="white"/>
</linearGradient>
<linearGradient id="paint14_linear_51_250" x1="57.4691" y1="38.0643" x2="50.859" y2="38.3119" gradientUnits="userSpaceOnUse">
<stop stop-color="white" stop-opacity="0"/>
<stop offset="0.11" stop-color="white" stop-opacity="0.18"/>
<stop offset="0.29" stop-color="white" stop-opacity="0.42"/>
<stop offset="0.45" stop-color="white" stop-opacity="0.63"/>
<stop offset="0.6" stop-color="white" stop-opacity="0.79"/>
<stop offset="0.74" stop-color="white" stop-opacity="0.9"/>
<stop offset="0.86" stop-color="white" stop-opacity="0.98"/>
<stop offset="0.95" stop-color="white"/>
</linearGradient>
<linearGradient id="paint15_linear_51_250" x1="54.6338" y1="17.7545" x2="52.0954" y2="17.3747" gradientUnits="userSpaceOnUse">
<stop offset="0.12" stop-color="#010101" stop-opacity="0"/>
<stop offset="0.95" stop-color="#010101"/>
</linearGradient>
<linearGradient id="paint16_linear_51_250" x1="44.8738" y1="18.1306" x2="47.4093" y2="17.6765" gradientUnits="userSpaceOnUse">
<stop offset="0.12" stop-color="#010101" stop-opacity="0"/>
<stop offset="0.95" stop-color="#010101"/>
</linearGradient>
<linearGradient id="paint17_linear_51_250" x1="46.2522" y1="40.1877" x2="52.3106" y2="38.6031" gradientUnits="userSpaceOnUse">
<stop stop-color="white" stop-opacity="0"/>
<stop offset="0.95" stop-color="white"/>
</linearGradient>
<linearGradient id="paint18_linear_51_250" x1="47.3462" y1="44.4252" x2="75.8306" y2="76.3512" gradientUnits="userSpaceOnUse">
<stop offset="0.12" stop-color="#010101" stop-opacity="0"/>
<stop offset="0.95" stop-color="#010101"/>
</linearGradient>
<linearGradient id="paint19_linear_51_250" x1="41.5559" y1="51.5937" x2="53.2608" y2="52.7362" gradientUnits="userSpaceOnUse">
<stop stop-color="white" stop-opacity="0"/>
<stop offset="0.95" stop-color="white"/>
</linearGradient>
<linearGradient id="paint20_linear_51_250" x1="52.2784" y1="37.1129" x2="72.0806" y2="39.3538" gradientUnits="userSpaceOnUse">
<stop offset="0.12" stop-color="#010101" stop-opacity="0"/>
<stop offset="0.95" stop-color="#010101"/>
</linearGradient>
<clipPath id="clip0_51_250">
<rect width="100" height="100" fill="white"/>
</clipPath>
</defs>
</svg>
